<?xml version="1.0" encoding="UTF-8" standalone="no"?>
<svg
   xmlns:dc="http://purl.org/dc/elements/1.1/"
   xmlns:cc="http://creativecommons.org/ns#"
   xmlns:rdf="http://www.w3.org/1999/02/22-rdf-syntax-ns#"
   xmlns:svg="http://www.w3.org/2000/svg"
   xmlns="http://www.w3.org/2000/svg"
   xmlns:sodipodi="http://sodipodi.sourceforge.net/DTD/sodipodi-0.dtd"
   xmlns:inkscape="http://www.inkscape.org/namespaces/inkscape"
   width="750"
   height="1334"
   version="1.1"
   viewBox="0 0 198.43749 352.95419"
   id="svg24"
   sodipodi:docname="splash.svg"
   style="shape-rendering:crispEdges"
   inkscape:export-filename="C:\Users\Ilia\Documents\SchoolSchedule\CleanGit\cordova\www\img\splash\splash750x1334.png"
   inkscape:export-xdpi="96"
   inkscape:export-ydpi="96"
   inkscape:version="0.92.1 r15371">
  <metadata
     id="metadata30">
    <rdf:RDF>
      <cc:Work
         rdf:about="">
        <dc:format>image/svg+xml</dc:format>
        <dc:type
           rdf:resource="http://purl.org/dc/dcmitype/StillImage" />
        <dc:title></dc:title>
      </cc:Work>
    </rdf:RDF>
  </metadata>
  <defs
     id="defs28" />
  <sodipodi:namedview
     pagecolor="#ffffff"
     bordercolor="#666666"
     borderopacity="1"
     objecttolerance="10"
     gridtolerance="10"
     guidetolerance="10"
     inkscape:pageopacity="0"
     inkscape:pageshadow="2"
     inkscape:window-width="1920"
     inkscape:window-height="1137"
     id="namedview26"
     showgrid="false"
     units="in"
     inkscape:zoom="0.34566093"
     inkscape:cx="994.93113"
     inkscape:cy="962.90508"
     inkscape:window-x="1432"
     inkscape:window-y="-8"
     inkscape:window-maximized="1"
     inkscape:current-layer="svg24" />
  <g
     transform="matrix(0.47296573,0,0,0.47296573,-28.907192,206.79479)"
     id="g22">
    <g
       transform="matrix(2.7625,0,0,2.572,190.79,-157.52)"
       id="g14">
      <polygon
         points="48,8 41,8 41,4 17,4 17,8 10,8 10,4 2,4 2,15 56,15 56,4 48,4 "
         id="polygon2"
         style="fill:#fc3952" />
      <polygon
         points="48,15 41,15 17,15 10,15 2,15 2,58 56,58 56,15 "
         id="polygon4"
         style="fill:#edeada" />
      <path
         d="M 39,22 H 10 V 51 H 48 V 22 Z m -9,2 h 7 v 7 h -7 z m 7,16 h -7 v -7 h 7 z M 21,33 h 7 v 7 h -7 z m 0,-9 h 7 v 7 h -7 z m -9,0 h 7 v 7 h -7 z m 0,9 h 7 v 7 h -7 z m 7,16 h -7 v -7 h 7 z m 9,0 h -7 v -7 h 7 z m 9,0 h -7 v -7 h 7 z m 9,0 h -7 v -7 h 7 z m 0,-9 h -7 v -7 h 7 z m -7,-9 v -7 h 7 v 7 z"
         id="path6"
         inkscape:connector-curvature="0"
         style="fill:#cec9ae" />
      <rect
         x="10"
         y="4"
         width="7"
         height="4"
         id="rect8"
         style="fill:#28384c;stroke-width:0.70710999" />
      <rect
         x="41"
         y="4"
         width="7"
         height="4"
         id="rect10"
         style="fill:#28384c;stroke-width:0.70710999" />
      <rect
         x="30"
         y="33"
         width="7"
         height="7"
         id="rect12"
         style="fill:#26b99a" />
    </g>
    <text
       x="139.60838"
       y="227.81776"
       font-size="26.935px"
       letter-spacing="0px"
       word-spacing="0px"
       style="font-size:26.93499947px;line-height:1.25;font-family:Roboto;font-variant-ligatures:normal;font-variant-caps:normal;font-variant-numeric:normal;font-feature-settings:normal;letter-spacing:0px;word-spacing:0px;fill:#000000;stroke-width:0.38848001"
       xml:space="preserve"
       id="text18"><tspan
         x="139.60838"
         y="227.81776"
         id="tspan16"
         style="stroke-width:0.38848001">Школьное расписание</tspan></text>
    <rect
       x="61.118999"
       y="-425.57999"
       width="419.56"
       height="722.58002"
       id="rect20"
       style="fill-opacity:0" />
  </g>
</svg>
