<?xml version="1.0" encoding="UTF-8"?>
<svg version="1.1" viewBox="0 0 54 54" xml:space="preserve" xmlns="http://www.w3.org/2000/svg"><polygon transform="translate(-2,-4)" points="41 8 41 4 17 4 17 8 10 8 10 4 2 4 2 15 56 15 56 4 48 4 48 8" fill="#fc3952"/><polygon transform="translate(-2,-4)" points="2 58 56 58 56 15 48 15 41 15 17 15 10 15 2 15" fill="#edeada"/><path d="m37 18h-29v29h38v-29zm-9 2h7v7h-7zm7 16h-7v-7h7zm-16-7h7v7h-7zm0-9h7v7h-7zm-9 0h7v7h-7zm0 9h7v7h-7zm7 16h-7v-7h7zm9 0h-7v-7h7zm9 0h-7v-7h7zm9 0h-7v-7h7zm0-9h-7v-7h7zm-7-9v-7h7v7z" fill="#cec9ae"/><rect x="8" width="7" height="4" fill="#28384c" stroke-width=".70711"/><rect x="39" width="7" height="4" fill="#28384c" stroke-width=".70711"/><rect x="28" y="29" width="7" height="7" fill="#26b99a"/></svg>
