<?xml version="1.0" encoding="UTF-8"?>
<svg width="56.004" height="56.109" version="1.1" viewBox="0 0 56.003906 56.109428" xml:space="preserve" xmlns="http://www.w3.org/2000/svg"><g transform="translate(-1.9961 -3.8906)"><path d="m57 4h-7l-1.011-4.273e-4h-7l-0.98895 4.273e-4 -22.004-0.10938-1-5.27e-5h-7l-1 5.27e-5h-7c-0.553 0-1 0.447-1 1v11l0.0039063 43.109c5.01e-5 0.553 0.447 1 1 1h54c0.553 0 1-0.447 1-1v-54c0-0.553-0.447-1-1-1zm-14.011 1.9996 5.0117-0.03125-6.7e-4 -0.96832v3h-5v-3zm-30.993-0.109h5.0039v-0.89057 3h-5v-3zm-7.9961 0.10943h6v3c0 0.553 0.447 1 1 1h7c0.553 0 1-0.447 1-1v-3h22v3c0 0.553 0.447 1 1 1h7c0.553 0 1-0.447 1-1v-3h6v9h-52zm0 52v-41h52v41z"/><path d="m38 23h-27v29h38v-29h-9zm-7 2h7v7h-7zm7 16h-7v-7h7zm-16-7h7v7h-7zm0-9h7v7h-7zm-9 0h7v7h-7zm0 9h7v7h-7zm7 16h-7v-7h7zm9 0h-7v-7h7zm9 0h-7v-7h7zm9 0h-7v-7h7zm0-9h-7v-7h7zm0-16v7h-7v-7z"/></g></svg>
